<svg width="100" height="100" viewBox="0 0 100 100" fill="none" xmlns="http://www.w3.org/2000/svg">
<g clip-path="url(#paint0_diamond_265_176_clip_path)" data-figma-skip-parse="true"><g transform="matrix(0 0.05 -0.05 0 50 50)"><rect x="0" y="0" width="1020" height="1020" fill="url(#paint0_diamond_265_176)" opacity="1" shape-rendering="crispEdges"/><rect x="0" y="0" width="1020" height="1020" transform="scale(1 -1)" fill="url(#paint0_diamond_265_176)" opacity="1" shape-rendering="crispEdges"/><rect x="0" y="0" width="1020" height="1020" transform="scale(-1 1)" fill="url(#paint0_diamond_265_176)" opacity="1" shape-rendering="crispEdges"/><rect x="0" y="0" width="1020" height="1020" transform="scale(-1)" fill="url(#paint0_diamond_265_176)" opacity="1" shape-rendering="crispEdges"/></g></g><path d="M50 0C50 0 52.7588 25.7497 63.5045 36.4955C74.2503 47.2412 100 50 100 50C100 50 74.2503 52.7588 63.5045 63.5045C52.7588 74.2503 50 100 50 100C50 100 47.2412 74.2503 36.4955 63.5045C25.7497 52.7588 0 50 0 50C0 50 25.7497 47.2412 36.4955 36.4955C47.2412 25.7497 50 0 50 0Z" data-figma-gradient-fill="{&#34;type&#34;:&#34;GRADIENT_DIAMOND&#34;,&#34;stops&#34;:[{&#34;color&#34;:{&#34;r&#34;:1.0,&#34;g&#34;:1.0,&#34;b&#34;:1.0,&#34;a&#34;:1.0},&#34;position&#34;:0.49519231915473938},{&#34;color&#34;:{&#34;r&#34;:0.086274512112140656,&#34;g&#34;:0.48627451062202454,&#34;b&#34;:1.0,&#34;a&#34;:1.0},&#34;position&#34;:1.0}],&#34;stopsVar&#34;:[{&#34;color&#34;:{&#34;r&#34;:1.0,&#34;g&#34;:1.0,&#34;b&#34;:1.0,&#34;a&#34;:1.0},&#34;position&#34;:0.49519231915473938},{&#34;color&#34;:{&#34;r&#34;:0.086274512112140656,&#34;g&#34;:0.48627451062202454,&#34;b&#34;:1.0,&#34;a&#34;:1.0},&#34;position&#34;:1.0}],&#34;transform&#34;:{&#34;m00&#34;:6.1232342099862801e-15,&#34;m01&#34;:-100.0,&#34;m02&#34;:100.0,&#34;m10&#34;:100.0,&#34;m11&#34;:6.1232342099862801e-15,&#34;m12&#34;:-6.1232342099862801e-15},&#34;opacity&#34;:1.0,&#34;blendMode&#34;:&#34;NORMAL&#34;,&#34;visible&#34;:true}"/>
<path d="M50 15C50 15 51.9311 33.0248 59.4532 40.5468C66.9752 48.0689 85 50 85 50C85 50 66.9752 51.9311 59.4532 59.4532C51.9311 66.9752 50 85 50 85C50 85 48.0689 66.9752 40.5468 59.4532C33.0248 51.9311 15 50 15 50C15 50 33.0248 48.0689 40.5468 40.5468C48.0689 33.0248 50 15 50 15Z" fill="black"/>
<g clip-path="url(#paint1_diamond_265_176_clip_path)" data-figma-skip-parse="true"><g transform="matrix(0 0.038 -0.038 0 50 30)"><rect x="0" y="0" width="1078.95" height="552.632" fill="url(#paint1_diamond_265_176)" opacity="1" shape-rendering="crispEdges"/><rect x="0" y="0" width="1078.95" height="552.632" transform="scale(1 -1)" fill="url(#paint1_diamond_265_176)" opacity="1" shape-rendering="crispEdges"/><rect x="0" y="0" width="1078.95" height="552.632" transform="scale(-1 1)" fill="url(#paint1_diamond_265_176)" opacity="1" shape-rendering="crispEdges"/><rect x="0" y="0" width="1078.95" height="552.632" transform="scale(-1)" fill="url(#paint1_diamond_265_176)" opacity="1" shape-rendering="crispEdges"/></g></g><path d="M50 30C50 30 51.1035 40.2999 55.4018 44.5982C59.7001 48.8965 70 50 70 50C70 50 59.7001 51.1035 55.4018 55.4018C51.1035 59.7001 50 70 50 70C50 70 48.8965 59.7001 44.5982 55.4018C40.2999 51.1035 30 50 30 50C30 50 40.2999 48.8965 44.5982 44.5982C48.8965 40.2999 50 30 50 30Z" data-figma-gradient-fill="{&#34;type&#34;:&#34;GRADIENT_DIAMOND&#34;,&#34;stops&#34;:[{&#34;color&#34;:{&#34;r&#34;:1.0,&#34;g&#34;:1.0,&#34;b&#34;:1.0,&#34;a&#34;:1.0},&#34;position&#34;:0.80000001192092896},{&#34;color&#34;:{&#34;r&#34;:0.086274512112140656,&#34;g&#34;:0.48627451062202454,&#34;b&#34;:1.0,&#34;a&#34;:1.0},&#34;position&#34;:1.0}],&#34;stopsVar&#34;:[{&#34;color&#34;:{&#34;r&#34;:1.0,&#34;g&#34;:1.0,&#34;b&#34;:1.0,&#34;a&#34;:1.0},&#34;position&#34;:0.80000001192092896},{&#34;color&#34;:{&#34;r&#34;:0.086274512112140656,&#34;g&#34;:0.48627451062202454,&#34;b&#34;:1.0,&#34;a&#34;:1.0},&#34;position&#34;:1.0}],&#34;transform&#34;:{&#34;m00&#34;:7.4454744941002821e-14,&#34;m01&#34;:-76.0,&#34;m02&#34;:88.0,&#34;m10&#34;:76.0,&#34;m11&#34;:6.0137855253331735e-14,&#34;m12&#34;:-7.9999985694885254},&#34;opacity&#34;:1.0,&#34;blendMode&#34;:&#34;NORMAL&#34;,&#34;visible&#34;:true}"/>
<defs>
<clipPath id="paint0_diamond_265_176_clip_path"><path d="M50 0C50 0 52.7588 25.7497 63.5045 36.4955C74.2503 47.2412 100 50 100 50C100 50 74.2503 52.7588 63.5045 63.5045C52.7588 74.2503 50 100 50 100C50 100 47.2412 74.2503 36.4955 63.5045C25.7497 52.7588 0 50 0 50C0 50 25.7497 47.2412 36.4955 36.4955C47.2412 25.7497 50 0 50 0Z"/></clipPath><clipPath id="paint1_diamond_265_176_clip_path"><path d="M50 30C50 30 51.1035 40.2999 55.4018 44.5982C59.7001 48.8965 70 50 70 50C70 50 59.7001 51.1035 55.4018 55.4018C51.1035 59.7001 50 70 50 70C50 70 48.8965 59.7001 44.5982 55.4018C40.2999 51.1035 30 50 30 50C30 50 40.2999 48.8965 44.5982 44.5982C48.8965 40.2999 50 30 50 30Z"/></clipPath><linearGradient id="paint0_diamond_265_176" x1="0" y1="0" x2="500" y2="500" gradientUnits="userSpaceOnUse">
<stop offset="0.495192" stop-color="white"/>
<stop offset="1" stop-color="#167CFF"/>
</linearGradient>
<linearGradient id="paint1_diamond_265_176" x1="0" y1="0" x2="500" y2="500" gradientUnits="userSpaceOnUse">
<stop offset="0.8" stop-color="white"/>
<stop offset="1" stop-color="#167CFF"/>
</linearGradient>
</defs>
</svg>
