<svg width="150" height="150" viewBox="0 0 150 150" fill="none" xmlns="http://www.w3.org/2000/svg">
<g clip-path="url(#paint0_diamond_266_187_clip_path)" data-figma-skip-parse="true"><g transform="matrix(0 0.075 -0.075 0 75 75)"><rect x="0" y="0" width="1013.33" height="1013.33" fill="url(#paint0_diamond_266_187)" opacity="1" shape-rendering="crispEdges"/><rect x="0" y="0" width="1013.33" height="1013.33" transform="scale(1 -1)" fill="url(#paint0_diamond_266_187)" opacity="1" shape-rendering="crispEdges"/><rect x="0" y="0" width="1013.33" height="1013.33" transform="scale(-1 1)" fill="url(#paint0_diamond_266_187)" opacity="1" shape-rendering="crispEdges"/><rect x="0" y="0" width="1013.33" height="1013.33" transform="scale(-1)" fill="url(#paint0_diamond_266_187)" opacity="1" shape-rendering="crispEdges"/></g></g><path d="M75 0C75 0 79.1381 38.6245 95.2568 54.7432C111.375 70.8619 150 75 150 75C150 75 111.375 79.1381 95.2568 95.2568C79.1381 111.375 75 150 75 150C75 150 70.8619 111.375 54.7432 95.2568C38.6245 79.1381 0 75 0 75C0 75 38.6245 70.8619 54.7432 54.7432C70.8619 38.6245 75 0 75 0Z" data-figma-gradient-fill="{&#34;type&#34;:&#34;GRADIENT_DIAMOND&#34;,&#34;stops&#34;:[{&#34;color&#34;:{&#34;r&#34;:0.0,&#34;g&#34;:0.0,&#34;b&#34;:0.0,&#34;a&#34;:1.0},&#34;position&#34;:0.49519231915473938},{&#34;color&#34;:{&#34;r&#34;:0.086274512112140656,&#34;g&#34;:0.48627451062202454,&#34;b&#34;:1.0,&#34;a&#34;:1.0},&#34;position&#34;:0.69999998807907104}],&#34;stopsVar&#34;:[{&#34;color&#34;:{&#34;r&#34;:0.0,&#34;g&#34;:0.0,&#34;b&#34;:0.0,&#34;a&#34;:1.0},&#34;position&#34;:0.49519231915473938},{&#34;color&#34;:{&#34;r&#34;:0.086274512112140656,&#34;g&#34;:0.48627451062202454,&#34;b&#34;:1.0,&#34;a&#34;:1.0},&#34;position&#34;:0.69999998807907104}],&#34;transform&#34;:{&#34;m00&#34;:9.1848517384958937e-15,&#34;m01&#34;:-150.0,&#34;m02&#34;:150.0,&#34;m10&#34;:150.0,&#34;m11&#34;:9.1848517384958937e-15,&#34;m12&#34;:-9.1848517384958937e-15},&#34;opacity&#34;:1.0,&#34;blendMode&#34;:&#34;NORMAL&#34;,&#34;visible&#34;:true}"/>
<path d="M75 25C75 25 77.7588 50.7497 88.5045 61.4955C99.2503 72.2412 125 75 125 75C125 75 99.2503 77.7588 88.5045 88.5045C77.7588 99.2503 75 125 75 125C75 125 72.2412 99.2503 61.4955 88.5045C50.7497 77.7588 25 75 25 75C25 75 50.7497 72.2412 61.4955 61.4955C72.2412 50.7497 75 25 75 25Z" fill="white"/>
<g clip-path="url(#paint1_diamond_266_187_clip_path)" data-figma-skip-parse="true"><g transform="matrix(0 0.0665 -0.0665 0 75 40)"><rect x="0" y="0" width="1067.67" height="541.353" fill="url(#paint1_diamond_266_187)" opacity="1" shape-rendering="crispEdges"/><rect x="0" y="0" width="1067.67" height="541.353" transform="scale(1 -1)" fill="url(#paint1_diamond_266_187)" opacity="1" shape-rendering="crispEdges"/><rect x="0" y="0" width="1067.67" height="541.353" transform="scale(-1 1)" fill="url(#paint1_diamond_266_187)" opacity="1" shape-rendering="crispEdges"/><rect x="0" y="0" width="1067.67" height="541.353" transform="scale(-1)" fill="url(#paint1_diamond_266_187)" opacity="1" shape-rendering="crispEdges"/></g></g><path d="M75 40C75 40 76.9311 58.0248 84.4532 65.5468C91.9752 73.0689 110 75 110 75C110 75 91.9752 76.9311 84.4532 84.4532C76.9311 91.9752 75 110 75 110C75 110 73.0689 91.9752 65.5468 84.4532C58.0248 76.9311 40 75 40 75C40 75 58.0248 73.0689 65.5468 65.5468C73.0689 58.0248 75 40 75 40Z" data-figma-gradient-fill="{&#34;type&#34;:&#34;GRADIENT_DIAMOND&#34;,&#34;stops&#34;:[{&#34;color&#34;:{&#34;r&#34;:0.086274512112140656,&#34;g&#34;:0.48627451062202454,&#34;b&#34;:1.0,&#34;a&#34;:1.0},&#34;position&#34;:0.19999998807907104},{&#34;color&#34;:{&#34;r&#34;:0.0,&#34;g&#34;:0.0,&#34;b&#34;:0.0,&#34;a&#34;:1.0},&#34;position&#34;:0.50}],&#34;stopsVar&#34;:[{&#34;color&#34;:{&#34;r&#34;:0.086274512112140656,&#34;g&#34;:0.48627451062202454,&#34;b&#34;:1.0,&#34;a&#34;:1.0},&#34;position&#34;:0.19999998807907104},{&#34;color&#34;:{&#34;r&#34;:0.0,&#34;g&#34;:0.0,&#34;b&#34;:0.0,&#34;a&#34;:1.0},&#34;position&#34;:0.50}],&#34;transform&#34;:{&#34;m00&#34;:1.9544699788719838e-13,&#34;m01&#34;:-133.0,&#34;m02&#34;:141.50,&#34;m10&#34;:133.0,&#34;m11&#34;:1.7039244093377398e-13,&#34;m12&#34;:-26.499998092651367},&#34;opacity&#34;:1.0,&#34;blendMode&#34;:&#34;NORMAL&#34;,&#34;visible&#34;:true}"/>
<defs>
<clipPath id="paint0_diamond_266_187_clip_path"><path d="M75 0C75 0 79.1381 38.6245 95.2568 54.7432C111.375 70.8619 150 75 150 75C150 75 111.375 79.1381 95.2568 95.2568C79.1381 111.375 75 150 75 150C75 150 70.8619 111.375 54.7432 95.2568C38.6245 79.1381 0 75 0 75C0 75 38.6245 70.8619 54.7432 54.7432C70.8619 38.6245 75 0 75 0Z"/></clipPath><clipPath id="paint1_diamond_266_187_clip_path"><path d="M75 40C75 40 76.9311 58.0248 84.4532 65.5468C91.9752 73.0689 110 75 110 75C110 75 91.9752 76.9311 84.4532 84.4532C76.9311 91.9752 75 110 75 110C75 110 73.0689 91.9752 65.5468 84.4532C58.0248 76.9311 40 75 40 75C40 75 58.0248 73.0689 65.5468 65.5468C73.0689 58.0248 75 40 75 40Z"/></clipPath><linearGradient id="paint0_diamond_266_187" x1="0" y1="0" x2="500" y2="500" gradientUnits="userSpaceOnUse">
<stop offset="0.495192"/>
<stop offset="0.7" stop-color="#167CFF"/>
</linearGradient>
<linearGradient id="paint1_diamond_266_187" x1="0" y1="0" x2="500" y2="500" gradientUnits="userSpaceOnUse">
<stop offset="0.2" stop-color="#167CFF"/>
<stop offset="0.5"/>
</linearGradient>
</defs>
</svg>
